<svg xmlns="http://www.w3.org/2000/svg" width="39.178" height="30.601" viewBox="0 0 39.178 30.601">
  <g id="pizza-outline" transform="translate(16.736 1.605) rotate(43)">
    <path id="Trazado_433" data-name="Trazado 433" d="M17.961,1.571A22.432,22.432,0,0,0,9.328,0,23.092,23.092,0,0,0,.686,1.548C.218,1.74-.2,2.071.1,2.68c.244.5,6.15,13.511,8.394,18.154a.925.925,0,0,0,1.666,0l8.36-18.119a.83.83,0,0,0-.561-1.143Z" transform="translate(1.814 2.786)" fill="none" stroke="#fff" stroke-miterlimit="10" stroke-width="2.25"/>
    <path id="Trazado_434" data-name="Trazado 434" d="M21.61,2.012A29.211,29.211,0,0,0,11.142,0,28.662,28.662,0,0,0,.666,1.978c-.272.111-.782.369-.642.8l.561,1.4c.232.476.5.476.874.476a1.4,1.4,0,0,0,.423-.126,25.491,25.491,0,0,1,18.522,0,1.35,1.35,0,0,0,.423.126c.382,0,.6.127.871-.47l.566-1.4C22.38,2.437,21.974,2.157,21.61,2.012Z" transform="translate(0 0)" fill="none" stroke="#fff" stroke-miterlimit="10" stroke-width="2.25"/>
    <path id="Trazado_435" data-name="Trazado 435" d="M3.714,1.857A1.857,1.857,0,1,1,1.857,0,1.857,1.857,0,0,1,3.714,1.857Z" transform="translate(5.571 6.5)" fill="#fff"/>
    <path id="Trazado_436" data-name="Trazado 436" d="M3.714,1.857A1.857,1.857,0,1,1,1.857,0,1.857,1.857,0,0,1,3.714,1.857Z" transform="translate(12.999 7.428)" fill="#fff"/>
    <path id="Trazado_437" data-name="Trazado 437" d="M3.714,1.857A1.857,1.857,0,1,1,1.857,0,1.857,1.857,0,0,1,3.714,1.857Z" transform="translate(9.285 13.928)" fill="#fff"/>
  </g>
</svg>
